<?xml version="1.0" encoding="utf-8"?>
<!-- Generator: Adobe Illustrator 19.0.0, SVG Export Plug-In . SVG Version: 6.00 Build 0)  -->
<svg version="1.1" id="Layer_1" xmlns="http://www.w3.org/2000/svg" xmlns:xlink="http://www.w3.org/1999/xlink" x="0px" y="0px"
	 viewBox="165.9 274.2 282.4 267.3" style="enable-background:new 165.9 274.2 282.4 267.3;" xml:space="preserve">
<style type="text/css">
	.st0{fill:url(#XMLID_2_);}
	.st1{fill:url(#XMLID_3_);}
	.st2{fill:url(#XMLID_4_);}
	.st3{fill:url(#XMLID_5_);}
	.st4{fill:#6ECCDF;}
	.st5{fill:#4A75B3;}
	.st6{fill:url(#XMLID_6_);}
</style>
<g id="XMLID_1348_">
	<g id="XMLID_1364_">
		<g id="XMLID_1368_">
			
				<linearGradient id="XMLID_2_" gradientUnits="userSpaceOnUse" x1="385.5377" y1="487.8106" x2="322.1946" y2="436.6781" gradientTransform="matrix(1 0 0 -1 0 792)">
				<stop  offset="0" style="stop-color:#39C0F0"/>
				<stop  offset="0.9996" style="stop-color:#2E2F78"/>
			</linearGradient>
			<polygon id="XMLID_519_" class="st0" points="389.1,338.1 351.9,316.5 329.3,312.8 366.5,334.4 			"/>
			
				<linearGradient id="XMLID_3_" gradientUnits="userSpaceOnUse" x1="397.3207" y1="482.2084" x2="350.2676" y2="394.9462" gradientTransform="matrix(1 0 0 -1 0 792)">
				<stop  offset="0" style="stop-color:#2B3A86"/>
				<stop  offset="0.9996" style="stop-color:#2B276B"/>
			</linearGradient>
			<polygon id="XMLID_520_" class="st1" points="389.1,338.1 366.5,334.4 343.9,364.1 344,395.8 389.1,369.8 			"/>
			
				<linearGradient id="XMLID_4_" gradientUnits="userSpaceOnUse" x1="366.655" y1="402.0223" x2="289.6729" y2="440.887" gradientTransform="matrix(1 0 0 -1 0 792)">
				<stop  offset="0" style="stop-color:#2F5F97"/>
				<stop  offset="0.9996" style="stop-color:#2E2F78"/>
			</linearGradient>
			<polygon id="XMLID_521_" class="st2" points="306.8,342.5 306.9,347 344,395.8 343.9,364.1 			"/>
			
				<linearGradient id="XMLID_5_" gradientUnits="userSpaceOnUse" x1="372.6221" y1="472.3012" x2="316.9106" y2="443.3007" gradientTransform="matrix(1 0 0 -1 0 792)">
				<stop  offset="0" style="stop-color:#39C0F0"/>
				<stop  offset="0.9996" style="stop-color:#2E2F78"/>
			</linearGradient>
			<polygon id="XMLID_522_" class="st3" points="366.5,334.4 329.3,312.8 306.8,342.5 343.9,364.1 			"/>
		</g>
		<path id="XMLID_1367_" class="st4" d="M381,354.5v13.3l-27.3,15.8v-13.3c0-5.2,1.6-10.9,4.3-15.7c2.4-4.5,5.7-8.3,9.4-10.4
			c1.9-1.1,3.8-1.6,5.4-1.6C377.6,342.5,381,347,381,354.5z"/>
		<path id="XMLID_1366_" class="st5" d="M381,354.5v13.3l-23-13.3c2.4-4.5,5.7-8.3,9.4-10.4c1.9-1.1,3.8-1.6,5.4-1.6
			C377.6,342.5,381,347,381,354.5z"/>
		
			<linearGradient id="XMLID_6_" gradientUnits="userSpaceOnUse" x1="346.3774" y1="417.6113" x2="378.0454" y2="437.0116" gradientTransform="matrix(1 0 0 -1 0 792)">
			<stop  offset="0" style="stop-color:#39C0F0"/>
			<stop  offset="0.9989" style="stop-color:#272367"/>
		</linearGradient>
		<path id="XMLID_1365_" class="st6" d="M374.4,342.7c1.9,2,3.1,5.4,3.1,9.8v13.3l-23.8,13.7v4l27.3-15.8v-13.3
			C381,347.9,378.3,343.6,374.4,342.7z"/>
	</g>
</g>
</svg>
