<?xml version="1.0" encoding="utf-8"?>
<!-- Generator: Adobe Illustrator 19.0.0, SVG Export Plug-In . SVG Version: 6.00 Build 0)  -->
<svg version="1.1" id="Layer_1" xmlns="http://www.w3.org/2000/svg" xmlns:xlink="http://www.w3.org/1999/xlink" x="0px" y="0px"
	 viewBox="0 0 612 792" style="enable-background:new 0 0 612 792;" xml:space="preserve">
<style type="text/css">
	.st0{fill:#FFFFFF;stroke:#4B54A4;stroke-width:40;stroke-miterlimit:10;}
	.st1{fill:url(#XMLID_2_);}
	.st2{fill:url(#XMLID_3_);}
	.st3{fill:url(#XMLID_4_);}
	.st4{fill:url(#XMLID_5_);}
	.st5{fill:#39C0F0;}
	.st6{fill:#272367;}
	.st7{fill:url(#XMLID_6_);}
	.st8{fill:#6ECCDF;}
	.st9{fill:#2B3A86;}
	.st10{fill:url(#XMLID_7_);}
	.st11{fill:#2B276B;}
	.st12{fill:url(#XMLID_8_);}
	.st13{fill:url(#XMLID_9_);}
	.st14{fill:url(#XMLID_10_);}
	.st15{fill:url(#XMLID_11_);}
	.st16{fill:url(#XMLID_12_);}
	.st17{fill:url(#XMLID_13_);}
	.st18{fill:#4A75B3;}
	.st19{fill:url(#XMLID_14_);}
	.st20{fill:url(#XMLID_15_);}
	.st21{fill:url(#XMLID_16_);}
	.st22{fill:url(#XMLID_17_);}
	.st23{fill:url(#XMLID_18_);}
	.st24{fill:url(#XMLID_19_);}
	.st25{fill:#62CBE6;}
	.st26{fill:url(#XMLID_20_);}
	.st27{fill:url(#XMLID_21_);}
	.st28{fill:url(#XMLID_22_);}
	.st29{fill:url(#XMLID_23_);}
	.st30{fill:url(#XMLID_24_);}
	.st31{fill:url(#XMLID_25_);}
	.st32{fill:url(#XMLID_26_);}
	.st33{fill:url(#XMLID_27_);}
	.st34{fill:url(#XMLID_28_);}
	.st35{fill:url(#XMLID_29_);}
	.st36{fill:url(#XMLID_30_);}
	.st37{fill:url(#XMLID_31_);}
	.st38{fill:url(#XMLID_32_);}
	.st39{fill:url(#XMLID_33_);}
	.st40{fill:url(#XMLID_34_);}
	.st41{fill:url(#XMLID_35_);}
	.st42{fill:url(#XMLID_36_);}
	.st43{fill:url(#XMLID_37_);}
	.st44{fill:url(#XMLID_38_);}
	.st45{fill:#FFFFFF;stroke:#4B54A4;stroke-width:4.9048;stroke-miterlimit:10;}
	.st46{fill:none;stroke:#30489E;stroke-width:4;stroke-miterlimit:10;}
	.st47{font-family:'Impact';}
	.st48{font-size:60px;}
</style>
<g>
	<ellipse class="st0" cx="309.2" cy="357.1" rx="196" ry="202.5"/>
	<g id="XMLID_1348_">
		<g id="XMLID_1373_">
			
				<linearGradient id="XMLID_2_" gradientUnits="userSpaceOnUse" x1="319.7366" y1="449.0211" x2="186.3269" y2="285.0383" gradientTransform="matrix(1 0 0 -1 0 792)">
				<stop  offset="0" style="stop-color:#2B3A86"/>
				<stop  offset="0.9996" style="stop-color:#2B276B"/>
			</linearGradient>
			<polygon id="XMLID_1415_" class="st1" points="240.3,341.4 171,352.6 170.8,449.7 308.9,529.5 309.2,432.3 			"/>
			
				<linearGradient id="XMLID_3_" gradientUnits="userSpaceOnUse" x1="431.0832" y1="432.3202" x2="335.2678" y2="288.9104" gradientTransform="matrix(1 0 0 -1 0 792)">
				<stop  offset="0" style="stop-color:#2B3A86"/>
				<stop  offset="0.9996" style="stop-color:#2B276B"/>
			</linearGradient>
			<polygon id="XMLID_1414_" class="st2" points="309.2,432.3 308.9,529.5 443.1,451.5 443.4,354.4 			"/>
			
				<linearGradient id="XMLID_4_" gradientUnits="userSpaceOnUse" x1="270.1728" y1="560.382" x2="271.8837" y2="432.9104" gradientTransform="matrix(1 0 0 -1 0 792)">
				<stop  offset="0" style="stop-color:#62CBE6"/>
				<stop  offset="0.9996" style="stop-color:#2E2F78"/>
			</linearGradient>
			<polygon id="XMLID_1413_" class="st3" points="376.5,262.2 304.5,273.6 165.9,354.1 238,342.7 			"/>
			
				<linearGradient id="XMLID_5_" gradientUnits="userSpaceOnUse" x1="386.5487" y1="530.6282" x2="302.2413" y2="359.234" gradientTransform="matrix(1 0 0 -1 0 792)">
				<stop  offset="0" style="stop-color:#62CBE6"/>
				<stop  offset="0.9996" style="stop-color:#2E2F78"/>
			</linearGradient>
			<polygon id="XMLID_1412_" class="st4" points="309.7,437.1 448.3,356.5 376.5,262.2 238,342.7 			"/>
			<g id="XMLID_1409_">
				<polygon id="XMLID_1411_" class="st5" points="309,514 309,512.1 170.8,432.4 170.8,434.3 				"/>
				<polygon id="XMLID_1410_" class="st6" points="309,512.1 309,510.2 170.8,430.5 170.8,432.4 				"/>
			</g>
			<g id="XMLID_1406_">
				<polygon id="XMLID_1408_" class="st5" points="309,514 309,512.1 443.2,435.7 443.2,437.6 				"/>
				<polygon id="XMLID_1407_" class="st6" points="309,512.1 309,510.2 443.2,433.8 443.2,435.7 				"/>
			</g>
			<g id="XMLID_1399_">
				
					<linearGradient id="XMLID_6_" gradientUnits="userSpaceOnUse" x1="267.4146" y1="567.2198" x2="240.4362" y2="318.6721" gradientTransform="matrix(1 0 0 -1 0 792)">
					<stop  offset="0" style="stop-color:#6ECCDF"/>
					<stop  offset="0.9996" style="stop-color:#2B276B"/>
				</linearGradient>
				<polygon id="XMLID_1405_" class="st7" points="239.4,317.8 238.9,508.5 255.6,498.7 256.2,308.1 				"/>
				<g id="XMLID_1400_">
					<polygon id="XMLID_1404_" class="st8" points="221.2,287.9 204.5,297.6 239.4,317.8 256.2,308.1 					"/>
					<polygon id="XMLID_1403_" class="st9" points="209.2,297.6 221.2,290.7 251.4,308.1 239.4,315.1 					"/>
					
						<linearGradient id="XMLID_7_" gradientUnits="userSpaceOnUse" x1="212.8414" y1="492.136" x2="230.3763" y2="286.7281" gradientTransform="matrix(1 0 0 -1 0 792)">
						<stop  offset="0" style="stop-color:#2F5F97"/>
						<stop  offset="0.9996" style="stop-color:#2E2F78"/>
					</linearGradient>
					<polygon id="XMLID_1402_" class="st10" points="204.5,297.6 203.9,488.3 238.9,508.5 239.4,317.8 					"/>
					<polygon id="XMLID_1401_" class="st11" points="221.2,290.7 221.2,304.6 209.2,297.6 					"/>
				</g>
			</g>
			<g id="XMLID_1382_">
				
					<linearGradient id="XMLID_8_" gradientUnits="userSpaceOnUse" x1="379.6488" y1="299.127" x2="378.7723" y2="358.4369" gradientTransform="matrix(1 0 0 -1 0 792)">
					<stop  offset="0" style="stop-color:#39C0F0"/>
					<stop  offset="0.9989" style="stop-color:#272367"/>
				</linearGradient>
				<polygon id="XMLID_1398_" class="st12" points="394.3,479.9 363.8,497.6 363.8,424.8 394.3,407.1 				"/>
				<polygon id="XMLID_1397_" class="st8" points="387.8,467 387.8,410.9 363.8,424.8 363.8,481 				"/>
				<g id="XMLID_1391_">
					
						<linearGradient id="XMLID_9_" gradientUnits="userSpaceOnUse" x1="381.9483" y1="287.6307" x2="353.3102" y2="304.6346" gradientTransform="matrix(1 0 0 -1 0 792)">
						<stop  offset="0" style="stop-color:#2B3A86"/>
						<stop  offset="0.9996" style="stop-color:#2B276B"/>
					</linearGradient>
					<polygon id="XMLID_1396_" class="st13" points="371.4,494.1 371.4,498.1 377.9,501.8 377.9,505.7 363.8,497.6 363.8,489.7 
											"/>
					
						<linearGradient id="XMLID_10_" gradientUnits="userSpaceOnUse" x1="414.1127" y1="321.9721" x2="340.7276" y2="299.5987" gradientTransform="matrix(1 0 0 -1 0 792)">
						<stop  offset="0" style="stop-color:#62CBE6"/>
						<stop  offset="0.9996" style="stop-color:#2E2F78"/>
					</linearGradient>
					<polygon id="XMLID_1395_" class="st14" points="403,475.8 371.4,494.1 363.8,489.7 363.8,481 387.8,467 394.3,470.8 					"/>
					
						<linearGradient id="XMLID_11_" gradientUnits="userSpaceOnUse" x1="2743.3767" y1="305.05" x2="2774.9768" y2="305.05" gradientTransform="matrix(-1 0 0 -1 3146.4099 792)">
						<stop  offset="0" style="stop-color:#2B3A86"/>
						<stop  offset="0.9996" style="stop-color:#2B276B"/>
					</linearGradient>
					<polygon id="XMLID_1394_" class="st15" points="371.4,494.1 371.4,498.1 403,479.8 403,475.8 					"/>
					
						<linearGradient id="XMLID_12_" gradientUnits="userSpaceOnUse" x1="410.8411" y1="310.5178" x2="365.7955" y2="289.9341" gradientTransform="matrix(1 0 0 -1 0 792)">
						<stop  offset="0" style="stop-color:#62CBE6"/>
						<stop  offset="0.9996" style="stop-color:#2E2F78"/>
					</linearGradient>
					<polygon id="XMLID_1393_" class="st16" points="409.5,483.5 377.9,501.8 371.4,498.1 403,479.8 					"/>
					
						<linearGradient id="XMLID_13_" gradientUnits="userSpaceOnUse" x1="2736.876" y1="297.4" x2="2768.4761" y2="297.4" gradientTransform="matrix(-1 0 0 -1 3146.4099 792)">
						<stop  offset="0" style="stop-color:#2B3A86"/>
						<stop  offset="0.9996" style="stop-color:#2B276B"/>
					</linearGradient>
					<polygon id="XMLID_1392_" class="st17" points="409.5,487.4 409.5,483.5 377.9,501.8 377.9,505.7 					"/>
				</g>
				<polygon id="XMLID_1390_" class="st18" points="363.8,481 363.8,489 394.3,470.8 387.8,467 				"/>
				<g id="XMLID_1383_">
					
						<linearGradient id="XMLID_14_" gradientUnits="userSpaceOnUse" x1="359.5338" y1="366.4291" x2="388.1852" y2="367.5227" gradientTransform="matrix(1 0 0 -1 0 792)">
						<stop  offset="0" style="stop-color:#272367;stop-opacity:0.4"/>
						<stop  offset="0.9996" style="stop-color:#FFFFFF"/>
					</linearGradient>
					<polygon id="XMLID_1389_" class="st19" points="368.5,430.7 368.5,427.7 383.1,419.2 383.1,422.3 					"/>
					
						<linearGradient id="XMLID_15_" gradientUnits="userSpaceOnUse" x1="359.8578" y1="357.9416" x2="388.5092" y2="359.035" gradientTransform="matrix(1 0 0 -1 0 792)">
						<stop  offset="0" style="stop-color:#272367;stop-opacity:0.4"/>
						<stop  offset="0.9996" style="stop-color:#FFFFFF"/>
					</linearGradient>
					<polygon id="XMLID_1388_" class="st20" points="368.5,439.2 368.5,436.1 383.1,427.7 383.1,430.7 					"/>
					
						<linearGradient id="XMLID_16_" gradientUnits="userSpaceOnUse" x1="360.1779" y1="349.5537" x2="388.8294" y2="350.6473" gradientTransform="matrix(1 0 0 -1 0 792)">
						<stop  offset="0" style="stop-color:#272367;stop-opacity:0.4"/>
						<stop  offset="0.9996" style="stop-color:#FFFFFF"/>
					</linearGradient>
					<polygon id="XMLID_1387_" class="st21" points="368.5,447.6 368.5,444.6 383.1,436.1 383.1,439.1 					"/>
					
						<linearGradient id="XMLID_17_" gradientUnits="userSpaceOnUse" x1="360.4999" y1="341.1161" x2="389.1515" y2="342.2096" gradientTransform="matrix(1 0 0 -1 0 792)">
						<stop  offset="0" style="stop-color:#272367;stop-opacity:0.4"/>
						<stop  offset="0.9996" style="stop-color:#FFFFFF"/>
					</linearGradient>
					<polygon id="XMLID_1386_" class="st22" points="368.5,456 368.5,453 383.1,444.6 383.1,447.6 					"/>
					
						<linearGradient id="XMLID_18_" gradientUnits="userSpaceOnUse" x1="360.822" y1="332.6783" x2="389.4734" y2="333.7719" gradientTransform="matrix(1 0 0 -1 0 792)">
						<stop  offset="0" style="stop-color:#272367;stop-opacity:0.4"/>
						<stop  offset="0.9996" style="stop-color:#FFFFFF"/>
					</linearGradient>
					<polygon id="XMLID_1385_" class="st23" points="368.5,464.5 368.5,461.4 383.1,453 383.1,456 					"/>
					
						<linearGradient id="XMLID_19_" gradientUnits="userSpaceOnUse" x1="361.1422" y1="324.2905" x2="389.7936" y2="325.3841" gradientTransform="matrix(1 0 0 -1 0 792)">
						<stop  offset="0" style="stop-color:#272367;stop-opacity:0.4"/>
						<stop  offset="0.9996" style="stop-color:#FFFFFF"/>
					</linearGradient>
					<polygon id="XMLID_1384_" class="st24" points="368.5,472.9 368.5,469.9 383.1,461.4 383.1,464.5 					"/>
				</g>
			</g>
			<g id="XMLID_1378_">
				<polygon id="XMLID_1381_" class="st25" points="357.4,445.7 325.5,464.1 325.5,447.2 357.4,428.8 				"/>
				
					<linearGradient id="XMLID_20_" gradientUnits="userSpaceOnUse" x1="320.9267" y1="332.4636" x2="356.0253" y2="353.9655" gradientTransform="matrix(1 0 0 -1 0 792)">
					<stop  offset="0" style="stop-color:#39C0F0"/>
					<stop  offset="0.9989" style="stop-color:#272367"/>
				</linearGradient>
				<polygon id="XMLID_1380_" class="st26" points="354.6,430.4 354.6,444 325.5,460.8 325.5,464.1 357.4,445.7 357.4,428.8 				"/>
				<polygon id="XMLID_1379_" class="st18" points="342.7,437.2 354.6,444 354.6,430.4 				"/>
			</g>
			<g id="XMLID_1374_">
				<polygon id="XMLID_1377_" class="st25" points="431.9,402.1 400,420.5 400,403.6 431.9,385.2 				"/>
				
					<linearGradient id="XMLID_21_" gradientUnits="userSpaceOnUse" x1="395.403" y1="376.0492" x2="430.5016" y2="397.551" gradientTransform="matrix(1 0 0 -1 0 792)">
					<stop  offset="0" style="stop-color:#39C0F0"/>
					<stop  offset="0.9989" style="stop-color:#272367"/>
				</linearGradient>
				<polygon id="XMLID_513_" class="st27" points="429.1,386.8 429.1,400.5 400,417.2 400,420.5 431.9,402.1 431.9,385.2 				"/>
				<polygon id="XMLID_518_" class="st18" points="417.2,393.6 429.1,400.5 429.1,386.8 				"/>
			</g>
		</g>
		<g id="XMLID_1364_">
			<g id="XMLID_1368_">
				
					<linearGradient id="XMLID_22_" gradientUnits="userSpaceOnUse" x1="385.5377" y1="499.8106" x2="322.1946" y2="448.6781" gradientTransform="matrix(1 0 0 -1 0 792)">
					<stop  offset="0" style="stop-color:#39C0F0"/>
					<stop  offset="0.9996" style="stop-color:#2E2F78"/>
				</linearGradient>
				<polygon id="XMLID_519_" class="st28" points="389.1,326.1 351.9,304.5 329.3,300.8 366.5,322.4 				"/>
				
					<linearGradient id="XMLID_23_" gradientUnits="userSpaceOnUse" x1="397.3207" y1="494.2084" x2="350.2676" y2="406.9462" gradientTransform="matrix(1 0 0 -1 0 792)">
					<stop  offset="0" style="stop-color:#2B3A86"/>
					<stop  offset="0.9996" style="stop-color:#2B276B"/>
				</linearGradient>
				<polygon id="XMLID_520_" class="st29" points="389.1,326.1 366.5,322.4 343.9,352.1 344,383.8 389.1,357.8 				"/>
				
					<linearGradient id="XMLID_24_" gradientUnits="userSpaceOnUse" x1="366.655" y1="414.0223" x2="289.6729" y2="452.887" gradientTransform="matrix(1 0 0 -1 0 792)">
					<stop  offset="0" style="stop-color:#2F5F97"/>
					<stop  offset="0.9996" style="stop-color:#2E2F78"/>
				</linearGradient>
				<polygon id="XMLID_521_" class="st30" points="306.8,330.5 306.9,335 344,383.8 343.9,352.1 				"/>
				
					<linearGradient id="XMLID_25_" gradientUnits="userSpaceOnUse" x1="372.6221" y1="484.3012" x2="316.9106" y2="455.3007" gradientTransform="matrix(1 0 0 -1 0 792)">
					<stop  offset="0" style="stop-color:#39C0F0"/>
					<stop  offset="0.9996" style="stop-color:#2E2F78"/>
				</linearGradient>
				<polygon id="XMLID_522_" class="st31" points="366.5,322.4 329.3,300.8 306.8,330.5 343.9,352.1 				"/>
			</g>
			<path id="XMLID_1367_" class="st8" d="M381,342.5v13.3l-27.3,15.8v-13.3c0-5.2,1.6-10.9,4.3-15.7c2.4-4.5,5.7-8.3,9.4-10.4
				c1.9-1.1,3.8-1.6,5.4-1.6C377.6,330.5,381,335,381,342.5z"/>
			<path id="XMLID_1366_" class="st18" d="M381,342.5v13.3l-23-13.3c2.4-4.5,5.7-8.3,9.4-10.4c1.9-1.1,3.8-1.6,5.4-1.6
				C377.6,330.5,381,335,381,342.5z"/>
			
				<linearGradient id="XMLID_26_" gradientUnits="userSpaceOnUse" x1="346.3774" y1="429.6113" x2="378.0454" y2="449.0116" gradientTransform="matrix(1 0 0 -1 0 792)">
				<stop  offset="0" style="stop-color:#39C0F0"/>
				<stop  offset="0.9989" style="stop-color:#272367"/>
			</linearGradient>
			<path id="XMLID_1365_" class="st32" d="M374.4,330.7c1.9,2,3.1,5.4,3.1,9.8v13.3l-23.8,13.7v4l27.3-15.8v-13.3
				C381,335.9,378.3,331.6,374.4,330.7z"/>
		</g>
		<g id="XMLID_1349_">
			<g id="XMLID_512_">
				
					<linearGradient id="XMLID_27_" gradientUnits="userSpaceOnUse" x1="2483.6609" y1="382.1" x2="2483.6609" y2="370.6356" gradientTransform="matrix(-1 0 0 -1 2914.1108 792)">
					<stop  offset="3.530000e-004" style="stop-color:#7CD0DF"/>
					<stop  offset="1" style="stop-color:#4068B1;stop-opacity:0.4"/>
				</linearGradient>
				<polygon id="XMLID_1363_" class="st33" points="429.6,421.4 431.3,420.4 431.3,409.9 429.6,410.8 				"/>
				
					<linearGradient id="XMLID_28_" gradientUnits="userSpaceOnUse" x1="2488.2109" y1="379.4725" x2="2488.2109" y2="368.008" gradientTransform="matrix(-1 0 0 -1 2914.1108 792)">
					<stop  offset="3.530000e-004" style="stop-color:#7CD0DF"/>
					<stop  offset="1" style="stop-color:#4068B1;stop-opacity:0.4"/>
				</linearGradient>
				<polygon id="XMLID_1362_" class="st34" points="425.1,424 426.7,423 426.7,412.5 425.1,413.5 				"/>
				
					<linearGradient id="XMLID_29_" gradientUnits="userSpaceOnUse" x1="2492.7607" y1="376.847" x2="2492.7607" y2="365.3825" gradientTransform="matrix(-1 0 0 -1 2914.1108 792)">
					<stop  offset="3.530000e-004" style="stop-color:#7CD0DF"/>
					<stop  offset="1" style="stop-color:#4068B1;stop-opacity:0.4"/>
				</linearGradient>
				<polygon id="XMLID_1361_" class="st35" points="420.5,426.6 422.2,425.7 422.2,415.2 420.5,416.1 				"/>
				
					<linearGradient id="XMLID_30_" gradientUnits="userSpaceOnUse" x1="2497.3108" y1="374.2214" x2="2497.3108" y2="362.757" gradientTransform="matrix(-1 0 0 -1 2914.1108 792)">
					<stop  offset="3.530000e-004" style="stop-color:#7CD0DF"/>
					<stop  offset="1" style="stop-color:#4068B1;stop-opacity:0.4"/>
				</linearGradient>
				<polygon id="XMLID_1360_" class="st36" points="416,429.2 417.6,428.3 417.6,417.8 416,418.7 				"/>
				
					<linearGradient id="XMLID_31_" gradientUnits="userSpaceOnUse" x1="2501.8108" y1="371.6" x2="2501.8108" y2="360.1355" gradientTransform="matrix(-1 0 0 -1 2914.1108 792)">
					<stop  offset="3.530000e-004" style="stop-color:#7CD0DF"/>
					<stop  offset="1" style="stop-color:#4068B1;stop-opacity:0.4"/>
				</linearGradient>
				<polygon id="XMLID_1359_" class="st37" points="411.5,431.9 413.1,430.9 413.1,420.4 411.5,421.3 				"/>
				
					<linearGradient id="XMLID_32_" gradientUnits="userSpaceOnUse" x1="2506.4109" y1="368.9703" x2="2506.4109" y2="357.5059" gradientTransform="matrix(-1 0 0 -1 2914.1108 792)">
					<stop  offset="3.530000e-004" style="stop-color:#7CD0DF"/>
					<stop  offset="1" style="stop-color:#4068B1;stop-opacity:0.4"/>
				</linearGradient>
				<polygon id="XMLID_1358_" class="st38" points="406.9,434.5 408.5,433.6 408.5,423 406.9,424 				"/>
			</g>
			<g id="XMLID_523_">
				
					<linearGradient id="XMLID_33_" gradientUnits="userSpaceOnUse" x1="2558.8108" y1="338.6" x2="2558.8108" y2="327.1356" gradientTransform="matrix(-1 0 0 -1 2914.1108 792)">
					<stop  offset="3.530000e-004" style="stop-color:#7CD0DF"/>
					<stop  offset="1" style="stop-color:#4068B1;stop-opacity:0.4"/>
				</linearGradient>
				<polygon id="XMLID_1356_" class="st39" points="354.5,464.9 356.1,463.9 356.1,453.4 354.5,454.3 				"/>
				
					<linearGradient id="XMLID_34_" gradientUnits="userSpaceOnUse" x1="2563.3608" y1="335.9756" x2="2563.3608" y2="324.5111" gradientTransform="matrix(-1 0 0 -1 2914.1108 792)">
					<stop  offset="3.530000e-004" style="stop-color:#7CD0DF"/>
					<stop  offset="1" style="stop-color:#4068B1;stop-opacity:0.4"/>
				</linearGradient>
				<polygon id="XMLID_1355_" class="st40" points="349.9,467.5 351.6,466.5 351.6,456 349.9,457 				"/>
				
					<linearGradient id="XMLID_35_" gradientUnits="userSpaceOnUse" x1="2567.9109" y1="333.3501" x2="2567.9109" y2="321.8856" gradientTransform="matrix(-1 0 0 -1 2914.1108 792)">
					<stop  offset="3.530000e-004" style="stop-color:#7CD0DF"/>
					<stop  offset="1" style="stop-color:#4068B1;stop-opacity:0.4"/>
				</linearGradient>
				<polygon id="XMLID_1354_" class="st41" points="345.4,470.1 347,469.2 347,458.6 345.4,459.6 				"/>
				
					<linearGradient id="XMLID_36_" gradientUnits="userSpaceOnUse" x1="2572.4109" y1="330.7245" x2="2572.4109" y2="319.2601" gradientTransform="matrix(-1 0 0 -1 2914.1108 792)">
					<stop  offset="3.530000e-004" style="stop-color:#7CD0DF"/>
					<stop  offset="1" style="stop-color:#4068B1;stop-opacity:0.4"/>
				</linearGradient>
				<polygon id="XMLID_1353_" class="st42" points="340.9,472.7 342.5,471.8 342.5,461.3 340.9,462.2 				"/>
				
					<linearGradient id="XMLID_37_" gradientUnits="userSpaceOnUse" x1="2577.0107" y1="328.1" x2="2577.0107" y2="316.6356" gradientTransform="matrix(-1 0 0 -1 2914.1108 792)">
					<stop  offset="3.530000e-004" style="stop-color:#7CD0DF"/>
					<stop  offset="1" style="stop-color:#4068B1;stop-opacity:0.4"/>
				</linearGradient>
				<polygon id="XMLID_1352_" class="st43" points="336.3,475.4 337.9,474.4 337.9,463.9 336.3,464.8 				"/>
				
					<linearGradient id="XMLID_38_" gradientUnits="userSpaceOnUse" x1="2581.5107" y1="325.4734" x2="2581.5107" y2="314.009" gradientTransform="matrix(-1 0 0 -1 2914.1108 792)">
					<stop  offset="3.530000e-004" style="stop-color:#7CD0DF"/>
					<stop  offset="1" style="stop-color:#4068B1;stop-opacity:0.4"/>
				</linearGradient>
				<polygon id="XMLID_1351_" class="st44" points="331.8,478 333.4,477 333.4,466.5 331.8,467.5 				"/>
			</g>
		</g>
	</g>
	<path class="st45" d="M354.5,257h-86.3c-6.6,0-12-5.4-12-12v-47.2c0-6.6,5.4-12,12-12h86.3c6.6,0,12,5.4,12,12V245
		C366.5,251.6,361.1,257,354.5,257z"/>
	<text transform="matrix(1 0 0 1 271.2 244)" class="st46 st47 st48">M K</text>
</g>
</svg>
