<?xml version="1.0" encoding="utf-8"?>
<!-- Generator: Adobe Illustrator 19.0.0, SVG Export Plug-In . SVG Version: 6.00 Build 0)  -->
<svg version="1.1" id="Layer_1" xmlns="http://www.w3.org/2000/svg" xmlns:xlink="http://www.w3.org/1999/xlink" x="0px" y="0px"
	 viewBox="165.9 274.2 282.4 267.3" style="enable-background:new 165.9 274.2 282.4 267.3;" xml:space="preserve">
<style type="text/css">
	.st0{fill:url(#XMLID_2_);}
	.st1{fill:#39C0F0;}
	.st2{fill:#272367;}
	.st3{fill:url(#XMLID_3_);}
	.st4{fill:#6ECCDF;}
	.st5{fill:url(#XMLID_4_);}
	.st6{fill:url(#XMLID_5_);}
	.st7{fill:url(#XMLID_6_);}
	.st8{fill:url(#XMLID_7_);}
	.st9{fill:url(#XMLID_8_);}
	.st10{fill:#4A75B3;}
	.st11{fill:url(#XMLID_9_);}
	.st12{fill:url(#XMLID_10_);}
	.st13{fill:url(#XMLID_11_);}
	.st14{fill:url(#XMLID_12_);}
	.st15{fill:url(#XMLID_13_);}
	.st16{fill:url(#XMLID_14_);}
	.st17{fill:#62CBE6;}
	.st18{fill:url(#XMLID_15_);}
	.st19{fill:url(#XMLID_16_);}
	.st20{fill:url(#XMLID_17_);}
	.st21{fill:url(#XMLID_18_);}
	.st22{fill:url(#XMLID_19_);}
	.st23{fill:url(#XMLID_20_);}
	.st24{fill:url(#XMLID_21_);}
	.st25{fill:url(#XMLID_22_);}
	.st26{fill:url(#XMLID_23_);}
	.st27{fill:url(#XMLID_24_);}
	.st28{fill:url(#XMLID_25_);}
	.st29{fill:url(#XMLID_26_);}
	.st30{fill:url(#XMLID_27_);}
	.st31{fill:url(#XMLID_28_);}
</style>
<g id="XMLID_1348_">
	<g id="XMLID_1373_">
		
			<linearGradient id="XMLID_2_" gradientUnits="userSpaceOnUse" x1="431.0832" y1="420.3202" x2="335.2678" y2="276.9104" gradientTransform="matrix(1 0 0 -1 0 792)">
			<stop  offset="0" style="stop-color:#2B3A86"/>
			<stop  offset="0.9996" style="stop-color:#2B276B"/>
		</linearGradient>
		<polygon id="XMLID_1414_" class="st0" points="309.2,444.3 308.9,541.5 443.1,463.5 443.4,366.4 		"/>
		<g id="XMLID_1406_">
			<polygon id="XMLID_1408_" class="st1" points="309,526 309,524.1 443.2,447.7 443.2,449.6 			"/>
			<polygon id="XMLID_1407_" class="st2" points="309,524.1 309,522.2 443.2,445.8 443.2,447.7 			"/>
		</g>
		<g id="XMLID_1382_">
			
				<linearGradient id="XMLID_3_" gradientUnits="userSpaceOnUse" x1="379.6488" y1="287.127" x2="378.7723" y2="346.4369" gradientTransform="matrix(1 0 0 -1 0 792)">
				<stop  offset="0" style="stop-color:#39C0F0"/>
				<stop  offset="0.9989" style="stop-color:#272367"/>
			</linearGradient>
			<polygon id="XMLID_1398_" class="st3" points="394.3,491.9 363.8,509.6 363.8,436.8 394.3,419.1 			"/>
			<polygon id="XMLID_1397_" class="st4" points="387.8,479 387.8,422.9 363.8,436.8 363.8,493 			"/>
			<g id="XMLID_1391_">
				
					<linearGradient id="XMLID_4_" gradientUnits="userSpaceOnUse" x1="381.9483" y1="275.6307" x2="353.3102" y2="292.6346" gradientTransform="matrix(1 0 0 -1 0 792)">
					<stop  offset="0" style="stop-color:#2B3A86"/>
					<stop  offset="0.9996" style="stop-color:#2B276B"/>
				</linearGradient>
				<polygon id="XMLID_1396_" class="st5" points="371.4,506.1 371.4,510.1 377.9,513.8 377.9,517.7 363.8,509.6 363.8,501.7 				
					"/>
				
					<linearGradient id="XMLID_5_" gradientUnits="userSpaceOnUse" x1="414.1127" y1="309.9721" x2="340.7276" y2="287.5987" gradientTransform="matrix(1 0 0 -1 0 792)">
					<stop  offset="0" style="stop-color:#62CBE6"/>
					<stop  offset="0.9996" style="stop-color:#2E2F78"/>
				</linearGradient>
				<polygon id="XMLID_1395_" class="st6" points="403,487.8 371.4,506.1 363.8,501.7 363.8,493 387.8,479 394.3,482.8 				"/>
				
					<linearGradient id="XMLID_6_" gradientUnits="userSpaceOnUse" x1="2743.3767" y1="293.05" x2="2774.9768" y2="293.05" gradientTransform="matrix(-1 0 0 -1 3146.4099 792)">
					<stop  offset="0" style="stop-color:#2B3A86"/>
					<stop  offset="0.9996" style="stop-color:#2B276B"/>
				</linearGradient>
				<polygon id="XMLID_1394_" class="st7" points="371.4,506.1 371.4,510.1 403,491.8 403,487.8 				"/>
				
					<linearGradient id="XMLID_7_" gradientUnits="userSpaceOnUse" x1="410.8411" y1="298.5178" x2="365.7955" y2="277.9341" gradientTransform="matrix(1 0 0 -1 0 792)">
					<stop  offset="0" style="stop-color:#62CBE6"/>
					<stop  offset="0.9996" style="stop-color:#2E2F78"/>
				</linearGradient>
				<polygon id="XMLID_1393_" class="st8" points="409.5,495.5 377.9,513.8 371.4,510.1 403,491.8 				"/>
				
					<linearGradient id="XMLID_8_" gradientUnits="userSpaceOnUse" x1="2736.876" y1="285.4" x2="2768.4761" y2="285.4" gradientTransform="matrix(-1 0 0 -1 3146.4099 792)">
					<stop  offset="0" style="stop-color:#2B3A86"/>
					<stop  offset="0.9996" style="stop-color:#2B276B"/>
				</linearGradient>
				<polygon id="XMLID_1392_" class="st9" points="409.5,499.4 409.5,495.5 377.9,513.8 377.9,517.7 				"/>
			</g>
			<polygon id="XMLID_1390_" class="st10" points="363.8,493 363.8,501 394.3,482.8 387.8,479 			"/>
			<g id="XMLID_1383_">
				
					<linearGradient id="XMLID_9_" gradientUnits="userSpaceOnUse" x1="359.5338" y1="354.4291" x2="388.1852" y2="355.5227" gradientTransform="matrix(1 0 0 -1 0 792)">
					<stop  offset="0" style="stop-color:#272367;stop-opacity:0.4"/>
					<stop  offset="0.9996" style="stop-color:#FFFFFF"/>
				</linearGradient>
				<polygon id="XMLID_1389_" class="st11" points="368.5,442.7 368.5,439.7 383.1,431.2 383.1,434.3 				"/>
				
					<linearGradient id="XMLID_10_" gradientUnits="userSpaceOnUse" x1="359.8578" y1="345.9416" x2="388.5092" y2="347.035" gradientTransform="matrix(1 0 0 -1 0 792)">
					<stop  offset="0" style="stop-color:#272367;stop-opacity:0.4"/>
					<stop  offset="0.9996" style="stop-color:#FFFFFF"/>
				</linearGradient>
				<polygon id="XMLID_1388_" class="st12" points="368.5,451.2 368.5,448.1 383.1,439.7 383.1,442.7 				"/>
				
					<linearGradient id="XMLID_11_" gradientUnits="userSpaceOnUse" x1="360.1779" y1="337.5537" x2="388.8294" y2="338.6473" gradientTransform="matrix(1 0 0 -1 0 792)">
					<stop  offset="0" style="stop-color:#272367;stop-opacity:0.4"/>
					<stop  offset="0.9996" style="stop-color:#FFFFFF"/>
				</linearGradient>
				<polygon id="XMLID_1387_" class="st13" points="368.5,459.6 368.5,456.6 383.1,448.1 383.1,451.1 				"/>
				
					<linearGradient id="XMLID_12_" gradientUnits="userSpaceOnUse" x1="360.4999" y1="329.1161" x2="389.1515" y2="330.2096" gradientTransform="matrix(1 0 0 -1 0 792)">
					<stop  offset="0" style="stop-color:#272367;stop-opacity:0.4"/>
					<stop  offset="0.9996" style="stop-color:#FFFFFF"/>
				</linearGradient>
				<polygon id="XMLID_1386_" class="st14" points="368.5,468 368.5,465 383.1,456.6 383.1,459.6 				"/>
				
					<linearGradient id="XMLID_13_" gradientUnits="userSpaceOnUse" x1="360.822" y1="320.6783" x2="389.4734" y2="321.7719" gradientTransform="matrix(1 0 0 -1 0 792)">
					<stop  offset="0" style="stop-color:#272367;stop-opacity:0.4"/>
					<stop  offset="0.9996" style="stop-color:#FFFFFF"/>
				</linearGradient>
				<polygon id="XMLID_1385_" class="st15" points="368.5,476.5 368.5,473.4 383.1,465 383.1,468 				"/>
				
					<linearGradient id="XMLID_14_" gradientUnits="userSpaceOnUse" x1="361.1422" y1="312.2905" x2="389.7936" y2="313.3841" gradientTransform="matrix(1 0 0 -1 0 792)">
					<stop  offset="0" style="stop-color:#272367;stop-opacity:0.4"/>
					<stop  offset="0.9996" style="stop-color:#FFFFFF"/>
				</linearGradient>
				<polygon id="XMLID_1384_" class="st16" points="368.5,484.9 368.5,481.9 383.1,473.4 383.1,476.5 				"/>
			</g>
		</g>
		<g id="XMLID_1378_">
			<polygon id="XMLID_1381_" class="st17" points="357.4,457.7 325.5,476.1 325.5,459.2 357.4,440.8 			"/>
			
				<linearGradient id="XMLID_15_" gradientUnits="userSpaceOnUse" x1="320.9267" y1="320.4636" x2="356.0253" y2="341.9655" gradientTransform="matrix(1 0 0 -1 0 792)">
				<stop  offset="0" style="stop-color:#39C0F0"/>
				<stop  offset="0.9989" style="stop-color:#272367"/>
			</linearGradient>
			<polygon id="XMLID_1380_" class="st18" points="354.6,442.4 354.6,456 325.5,472.8 325.5,476.1 357.4,457.7 357.4,440.8 			"/>
			<polygon id="XMLID_1379_" class="st10" points="342.7,449.2 354.6,456 354.6,442.4 			"/>
		</g>
		<g id="XMLID_1374_">
			<polygon id="XMLID_1377_" class="st17" points="431.9,414.1 400,432.5 400,415.6 431.9,397.2 			"/>
			
				<linearGradient id="XMLID_16_" gradientUnits="userSpaceOnUse" x1="395.403" y1="364.0492" x2="430.5016" y2="385.551" gradientTransform="matrix(1 0 0 -1 0 792)">
				<stop  offset="0" style="stop-color:#39C0F0"/>
				<stop  offset="0.9989" style="stop-color:#272367"/>
			</linearGradient>
			<polygon id="XMLID_513_" class="st19" points="429.1,398.8 429.1,412.5 400,429.2 400,432.5 431.9,414.1 431.9,397.2 			"/>
			<polygon id="XMLID_518_" class="st10" points="417.2,405.6 429.1,412.5 429.1,398.8 			"/>
		</g>
	</g>
	<g id="XMLID_1349_">
		<g id="XMLID_512_">
			
				<linearGradient id="XMLID_17_" gradientUnits="userSpaceOnUse" x1="2483.6609" y1="370.1" x2="2483.6609" y2="358.6356" gradientTransform="matrix(-1 0 0 -1 2914.1108 792)">
				<stop  offset="3.530000e-004" style="stop-color:#7CD0DF"/>
				<stop  offset="1" style="stop-color:#4068B1;stop-opacity:0.4"/>
			</linearGradient>
			<polygon id="XMLID_1363_" class="st20" points="429.6,433.4 431.3,432.4 431.3,421.9 429.6,422.8 			"/>
			
				<linearGradient id="XMLID_18_" gradientUnits="userSpaceOnUse" x1="2488.2109" y1="367.4725" x2="2488.2109" y2="356.008" gradientTransform="matrix(-1 0 0 -1 2914.1108 792)">
				<stop  offset="3.530000e-004" style="stop-color:#7CD0DF"/>
				<stop  offset="1" style="stop-color:#4068B1;stop-opacity:0.4"/>
			</linearGradient>
			<polygon id="XMLID_1362_" class="st21" points="425.1,436 426.7,435 426.7,424.5 425.1,425.5 			"/>
			
				<linearGradient id="XMLID_19_" gradientUnits="userSpaceOnUse" x1="2492.7607" y1="364.847" x2="2492.7607" y2="353.3825" gradientTransform="matrix(-1 0 0 -1 2914.1108 792)">
				<stop  offset="3.530000e-004" style="stop-color:#7CD0DF"/>
				<stop  offset="1" style="stop-color:#4068B1;stop-opacity:0.4"/>
			</linearGradient>
			<polygon id="XMLID_1361_" class="st22" points="420.5,438.6 422.2,437.7 422.2,427.2 420.5,428.1 			"/>
			
				<linearGradient id="XMLID_20_" gradientUnits="userSpaceOnUse" x1="2497.3108" y1="362.2214" x2="2497.3108" y2="350.757" gradientTransform="matrix(-1 0 0 -1 2914.1108 792)">
				<stop  offset="3.530000e-004" style="stop-color:#7CD0DF"/>
				<stop  offset="1" style="stop-color:#4068B1;stop-opacity:0.4"/>
			</linearGradient>
			<polygon id="XMLID_1360_" class="st23" points="416,441.2 417.6,440.3 417.6,429.8 416,430.7 			"/>
			
				<linearGradient id="XMLID_21_" gradientUnits="userSpaceOnUse" x1="2501.8108" y1="359.6" x2="2501.8108" y2="348.1355" gradientTransform="matrix(-1 0 0 -1 2914.1108 792)">
				<stop  offset="3.530000e-004" style="stop-color:#7CD0DF"/>
				<stop  offset="1" style="stop-color:#4068B1;stop-opacity:0.4"/>
			</linearGradient>
			<polygon id="XMLID_1359_" class="st24" points="411.5,443.9 413.1,442.9 413.1,432.4 411.5,433.3 			"/>
			
				<linearGradient id="XMLID_22_" gradientUnits="userSpaceOnUse" x1="2506.4109" y1="356.9703" x2="2506.4109" y2="345.5059" gradientTransform="matrix(-1 0 0 -1 2914.1108 792)">
				<stop  offset="3.530000e-004" style="stop-color:#7CD0DF"/>
				<stop  offset="1" style="stop-color:#4068B1;stop-opacity:0.4"/>
			</linearGradient>
			<polygon id="XMLID_1358_" class="st25" points="406.9,446.5 408.5,445.6 408.5,435 406.9,436 			"/>
		</g>
		<g id="XMLID_523_">
			
				<linearGradient id="XMLID_23_" gradientUnits="userSpaceOnUse" x1="2558.8108" y1="326.6" x2="2558.8108" y2="315.1356" gradientTransform="matrix(-1 0 0 -1 2914.1108 792)">
				<stop  offset="3.530000e-004" style="stop-color:#7CD0DF"/>
				<stop  offset="1" style="stop-color:#4068B1;stop-opacity:0.4"/>
			</linearGradient>
			<polygon id="XMLID_1356_" class="st26" points="354.5,476.9 356.1,475.9 356.1,465.4 354.5,466.3 			"/>
			
				<linearGradient id="XMLID_24_" gradientUnits="userSpaceOnUse" x1="2563.3608" y1="323.9756" x2="2563.3608" y2="312.5111" gradientTransform="matrix(-1 0 0 -1 2914.1108 792)">
				<stop  offset="3.530000e-004" style="stop-color:#7CD0DF"/>
				<stop  offset="1" style="stop-color:#4068B1;stop-opacity:0.4"/>
			</linearGradient>
			<polygon id="XMLID_1355_" class="st27" points="349.9,479.5 351.6,478.5 351.6,468 349.9,469 			"/>
			
				<linearGradient id="XMLID_25_" gradientUnits="userSpaceOnUse" x1="2567.9109" y1="321.3501" x2="2567.9109" y2="309.8856" gradientTransform="matrix(-1 0 0 -1 2914.1108 792)">
				<stop  offset="3.530000e-004" style="stop-color:#7CD0DF"/>
				<stop  offset="1" style="stop-color:#4068B1;stop-opacity:0.4"/>
			</linearGradient>
			<polygon id="XMLID_1354_" class="st28" points="345.4,482.1 347,481.2 347,470.6 345.4,471.6 			"/>
			
				<linearGradient id="XMLID_26_" gradientUnits="userSpaceOnUse" x1="2572.4109" y1="318.7245" x2="2572.4109" y2="307.2601" gradientTransform="matrix(-1 0 0 -1 2914.1108 792)">
				<stop  offset="3.530000e-004" style="stop-color:#7CD0DF"/>
				<stop  offset="1" style="stop-color:#4068B1;stop-opacity:0.4"/>
			</linearGradient>
			<polygon id="XMLID_1353_" class="st29" points="340.9,484.7 342.5,483.8 342.5,473.3 340.9,474.2 			"/>
			
				<linearGradient id="XMLID_27_" gradientUnits="userSpaceOnUse" x1="2577.0107" y1="316.1" x2="2577.0107" y2="304.6356" gradientTransform="matrix(-1 0 0 -1 2914.1108 792)">
				<stop  offset="3.530000e-004" style="stop-color:#7CD0DF"/>
				<stop  offset="1" style="stop-color:#4068B1;stop-opacity:0.4"/>
			</linearGradient>
			<polygon id="XMLID_1352_" class="st30" points="336.3,487.4 337.9,486.4 337.9,475.9 336.3,476.8 			"/>
			
				<linearGradient id="XMLID_28_" gradientUnits="userSpaceOnUse" x1="2581.5107" y1="313.4734" x2="2581.5107" y2="302.009" gradientTransform="matrix(-1 0 0 -1 2914.1108 792)">
				<stop  offset="3.530000e-004" style="stop-color:#7CD0DF"/>
				<stop  offset="1" style="stop-color:#4068B1;stop-opacity:0.4"/>
			</linearGradient>
			<polygon id="XMLID_1351_" class="st31" points="331.8,490 333.4,489 333.4,478.5 331.8,479.5 			"/>
		</g>
	</g>
</g>
</svg>
